<svg 
 xmlns="http://www.w3.org/2000/svg"
 xmlns:xlink="http://www.w3.org/1999/xlink"
 width="24px" height="24px">
<defs>
<filter id="Filter_0">
    <feFlood flood-color="rgb(183, 186, 205)" flood-opacity="1" result="floodOut" />
    <feComposite operator="atop" in="floodOut" in2="SourceGraphic" result="compOut" />
    <feBlend mode="normal" in="compOut" in2="SourceGraphic" />
</filter>

</defs>
<g filter="url(#Filter_0)">
<path fill-rule="evenodd"  fill="rgb(189, 195, 199)"
 d="M20.400,18.999 L16.780,18.999 L12.990,22.789 L12.990,22.789 C12.736,23.043 12.386,23.200 12.000,23.200 C11.613,23.200 11.263,23.043 11.010,22.789 L11.010,22.789 L7.220,18.999 L3.600,18.999 C2.053,18.999 0.800,17.746 0.800,16.200 L0.800,3.599 C0.800,2.053 2.053,0.800 3.600,0.800 L20.400,0.800 C21.946,0.800 23.200,2.053 23.200,3.599 L23.200,16.200 C23.200,17.746 21.946,18.999 20.400,18.999 ZM20.400,4.999 C20.400,4.226 19.773,3.599 19.000,3.599 L5.000,3.599 C4.226,3.599 3.600,4.226 3.600,4.999 L3.600,14.799 C3.600,15.572 4.226,16.200 5.000,16.200 L6.400,16.200 L7.800,16.200 C8.186,16.200 8.536,16.356 8.790,16.610 L8.790,16.610 L12.000,19.819 L15.210,16.610 L15.210,16.610 C15.463,16.356 15.813,16.200 16.200,16.200 L17.600,16.200 L19.000,16.200 C19.773,16.200 20.400,15.572 20.400,14.799 L20.400,4.999 ZM16.200,13.399 L7.800,13.399 C7.026,13.399 6.400,12.773 6.400,11.999 C6.400,11.226 7.026,10.599 7.800,10.599 L16.200,10.599 C16.973,10.599 17.600,11.226 17.600,11.999 C17.600,12.773 16.973,13.399 16.200,13.399 ZM16.200,9.199 L7.800,9.199 C7.026,9.199 6.400,8.573 6.400,7.799 C6.400,7.026 7.026,6.399 7.800,6.399 L16.200,6.399 C16.973,6.399 17.600,7.026 17.600,7.799 C17.600,8.573 16.973,9.199 16.200,9.199 Z"/>
</g>
</svg>